<?xml version="1.0" encoding="UTF-8"?>
<svg xmlns="http://www.w3.org/2000/svg" xmlns:xlink="http://www.w3.org/1999/xlink" width="146px" height="25px" viewBox="0 0 146 25" version="1.1">
  <title>home_icon_Boostvision</title>
  <g id="1.1.0" stroke="none" stroke-width="1" fill="none" fill-rule="evenodd">
    <g id="主页" transform="translate(-300.000000, -39.000000)" fill="#0066DD">
      <g id="home_icon_Boostvision" transform="translate(299.999767, 38.999691)">
        <path d="M24.000233,12.5225105 C21.5313221,12.5225105 19.5218172,14.531124 19.5218172,17.0007047 C19.5218172,19.4694934 21.5313221,21.4781068 24.000233,21.4781068 C26.4691439,21.4781068 28.4786489,19.4694934 28.4786489,17.0007047 C28.4786489,14.531124 26.4691439,12.5225105 24.000233,12.5225105 M24.000233,25.0003087 C19.5891439,25.0003087 16.000233,21.4115754 16.000233,17.0007047 C16.000233,12.5890419 19.5891439,9.00030867 24.000233,9.00030867 C28.4113221,9.00030867 32.000233,12.5890419 32.000233,17.0007047 C32.000233,21.4115754 28.4113221,25.0003087 24.000233,25.0003087" id="Fill-1"></path>
        <path d="M42.000233,12.5225105 C39.5313221,12.5225105 37.5218172,14.531124 37.5218172,17.0007047 C37.5218172,19.4694934 39.5313221,21.4781068 42.000233,21.4781068 C43.2778568,21.4781068 44.4976588,20.9300151 45.3475598,19.9748149 C46.0770647,19.1550535 46.4786489,18.0992642 46.4786489,17.0007047 C46.4786489,14.531124 44.4691439,12.5225105 42.000233,12.5225105 M42.000233,25.0003087 C37.5891439,25.0003087 34.000233,21.4115754 34.000233,17.0007047 C34.000233,12.5890419 37.5891439,9.00030867 42.000233,9.00030867 C46.4113221,9.00030867 50.000233,12.5890419 50.000233,17.0007047 C50.000233,18.9625878 49.2826093,20.8500191 47.979639,22.3152931 C46.4620152,24.0221393 44.2822132,25.0003087 42.000233,25.0003087" id="Fill-3"></path>
        <path d="M123.000233,12.5225105 C120.531322,12.5225105 118.521817,14.531124 118.521817,17.0007047 C118.521817,19.4694934 120.531322,21.4781068 123.000233,21.4781068 C125.469144,21.4781068 127.478649,19.4694934 127.478649,17.0007047 C127.478649,14.531124 125.469144,12.5225105 123.000233,12.5225105 M123.000233,25.0003087 C118.589144,25.0003087 115.000233,21.4115754 115.000233,17.0007047 C115.000233,12.5890419 118.589144,9.00030867 123.000233,9.00030867 C127.411322,9.00030867 131.000233,12.5890419 131.000233,17.0007047 C131.000233,21.4115754 127.411322,25.0003087 123.000233,25.0003087" id="Fill-5"></path>
        <path d="M11.5461094,17.5597131 C11.5461094,19.7705932 9.73554892,21.5693931 7.51021402,21.5693931 L3.45412367,21.5693931 L3.45412367,12.8431687 L7.51021402,12.8431687 C9.73554892,12.8431687 11.5461094,14.6419686 11.5461094,16.8528488 L11.5461094,17.5597131 Z M3.45412367,3.43168728 L7.64847217,3.43168728 C9.30757002,3.43168728 10.6583056,4.7728774 10.6583056,6.42197021 C10.6583056,8.07029133 9.30757002,9.41225314 7.64847217,9.41225314 L7.51021402,9.41225314 L3.45412367,9.41225314 L3.45412367,3.43168728 Z M12.1550666,11.0196749 C13.3613302,9.8528858 14.1116525,8.22308514 14.1116525,6.42197021 C14.1116525,2.88070353 11.2121149,0 7.64847217,0 L0,0 L0,9.41225314 L0,12.8431687 L0,25.0003087 L7.51021402,25.0003087 C11.6400938,25.0003087 15.000233,21.6627671 15.000233,17.5597131 L15.000233,16.8528488 C15.000233,14.4914898 13.8871772,12.3840156 12.1550666,11.0196749 L12.1550666,11.0196749 Z" id="Fill-7"></path>
        <path d="M98.000233,25.0003087 L94.000233,25.0003087 L94.000233,12.5225105 C94.000233,10.5772603 95.7911033,9.00030867 98.000233,9.00030867 L98.000233,9.00030867 L98.000233,25.0003087 Z" id="Fill-9"></path>
        <path d="M98.000233,5.00030867 C98.000233,6.10459832 97.1045227,7.00030867 96.000233,7.00030867 C94.8959434,7.00030867 94.000233,6.10459832 94.000233,5.00030867 C94.000233,3.89601902 94.8959434,3.00030867 96.000233,3.00030867 C97.1045227,3.00030867 98.000233,3.89601902 98.000233,5.00030867" id="Fill-11"></path>
        <path d="M114.000233,25.0003087 L110.000233,25.0003087 L110.000233,12.5225105 C110.000233,10.5772603 111.791103,9.00030867 114.000233,9.00030867 L114.000233,25.0003087 Z" id="Fill-13"></path>
        <path d="M114.000233,5.00030867 C114.000233,6.10459832 113.104523,7.00030867 112.000233,7.00030867 C110.895943,7.00030867 110.000233,6.10459832 110.000233,5.00030867 C110.000233,3.89601902 110.895943,3.00030867 112.000233,3.00030867 C113.104523,3.00030867 114.000233,3.89601902 114.000233,5.00030867" id="Fill-15"></path>
        <path d="M146.000312,25.0003087 L142.499988,25.0003087 L142.499988,15.521174 C142.499988,13.8610581 141.154012,12.511422 139.500272,12.511422 C137.845746,12.511422 136.49977,13.8610581 136.49977,15.521174 L136.49977,21.4781068 C136.49977,23.423357 134.932613,25.0003087 133.000233,25.0003087 L133.000233,15.521174 C133.000233,11.9253124 135.915727,9.00030867 139.500272,9.00030867 C143.084031,9.00030867 146.000312,11.9253124 146.000312,15.521174 L146.000312,25.0003087 Z" id="Fill-17"></path>
        <polygon id="Fill-19" points="94.000233 0.0270860931 90.5381275 7.71693067e-05 83.572033 19.0467702 76.6059386 7.71693067e-05 73.000233 0.0270860931 82.2108249 25.0003087 82.2175562 24.9979936 82.2175562 25.0003087 84.9354848 25.0003087 84.9354848 24.9964503"></polygon>
        <path d="M104.194544,25.0003087 L99.0266593,25.0003087 L99.0266593,25.0003087 C99.0266593,23.0550584 100.574149,21.4781068 102.482279,21.4781068 L104.194544,21.4781068 C104.931369,21.4781068 105.5314,20.869028 105.5314,20.1197582 C105.5314,19.3704884 104.931369,18.7614096 104.194544,18.7614096 L103.792709,18.7614096 C101.150085,18.7614096 99.000233,16.5722111 99.000233,13.8808591 C99.000233,11.1895072 101.150085,9.00030867 103.792709,9.00030867 L109.000233,9.00030867 L109.000233,9.00030867 C109.000233,10.9455589 107.452744,12.5225105 105.543836,12.5225105 L103.792709,12.5225105 C103.055884,12.5225105 102.455852,13.1315893 102.455852,13.8808591 C102.455852,14.630129 103.055884,15.2392077 103.792709,15.2392077 L104.194544,15.2392077 C106.837168,15.2392077 108.98702,17.4284063 108.98702,20.1197582 C108.98702,22.8111101 106.837168,25.0003087 104.194544,25.0003087" id="Fill-21"></path>
        <path d="M68.1277862,16.6097607 L68.1277862,12.7598519 L72.9506486,12.7598519 L72.9506486,9.30464622 L68.1277862,9.30464622 L68.1277862,2.00030867 L68.1277862,2.00030867 C66.224983,2.00030867 64.6824418,3.54726496 64.6824418,5.45473743 L64.6824418,9.30464622 L62.4186018,9.30464622 L61.6314487,9.30464622 L55.8502119,9.30464622 C53.2160381,9.30464622 51.0722854,11.4529808 51.0722854,14.0923633 C51.0722854,16.7325227 53.2160381,18.8800803 55.8502119,18.8800803 L56.2507613,18.8800803 C56.9852309,18.8800803 57.5833433,19.4775737 57.5833433,20.2125916 C57.5833433,20.9476095 56.9852309,21.5451029 56.2507613,21.5451029 L54.4455774,21.5451029 C52.5427742,21.5451029 51.000233,23.0920592 51.000233,25.0003087 L56.2507613,25.0003087 C58.8849351,25.0003087 61.027913,22.8527511 61.027913,20.2125916 C61.027913,17.5732092 58.8849351,15.4248746 56.2507613,15.4248746 L55.8502119,15.4248746 C55.1157422,15.4248746 54.5176298,14.8273812 54.5176298,14.0923633 C54.5176298,13.3581223 55.1157422,12.7598519 55.8502119,12.7598519 L61.6314487,12.7598519 L62.4186018,12.7598519 L64.6824418,12.7598519 L64.6824418,16.6097607 C64.6824418,21.2094499 68.4136715,24.9513593 73.000233,24.9513593 L73.000233,21.4961535 C70.3133757,21.4961535 68.1277862,19.3043084 68.1277862,16.6097607" id="Fill-23"></path>
        <path d="M124.96711,19.0001798 C124.764765,19.0001798 124.600439,18.8358545 124.600439,18.6335088 C124.600439,18.4311632 124.764765,18.2668379 124.96711,18.2668379 C125.169456,18.2668379 125.333781,18.4311632 125.333781,18.6335088 C125.333781,18.8358545 125.169456,19.0001798 124.96711,19.0001798 M126.433794,17.5334959 C125.605079,17.5334959 124.933601,16.8620177 124.933601,16.0333026 C124.933601,15.6866085 125.051528,15.3682685 125.248719,15.1143698 C125.012864,15.0402623 124.760898,15.0003087 124.500555,15.0003087 C123.119578,15.0003087 122.000233,16.119654 122.000233,17.4999865 C122.000233,18.8809634 123.119578,20.0003087 124.500555,20.0003087 C125.880888,20.0003087 127.000233,18.8809634 127.000233,17.4999865 C127.000233,17.47421 126.999589,17.4490778 126.9983,17.4233013 C126.824308,17.4941868 126.633562,17.5334959 126.433794,17.5334959" id="Fill-25"></path>
      </g>
    </g>
  </g>
</svg>
