<svg xmlns="http://www.w3.org/2000/svg" width="203" height="64" viewBox="0 0 203 64"><title>chromecast_appatore_img</title><g fill="none"><path fill="#000" d="M196.656 64H6.344C2.854 64 0 61.12 0 57.6V6.4C0 2.88 2.855 0 6.344 0h190.312C200.146 0 203 2.88 203 6.4v51.2c0 3.52-2.855 6.4-6.344 6.4"/><path fill="#fff" d="M43.365 32.068c0-4.89 4.155-7.257 4.315-7.414-2.397-3.313-5.913-3.786-7.19-3.944-3.037-.316-6.073 1.735-7.511 1.735-1.598 0-3.995-1.735-6.551-1.735-3.356 0-6.392 1.893-8.15 4.89-3.515 5.995-.958 14.828 2.397 19.719 1.758 2.366 3.675 5.047 6.232 4.89s3.515-1.578 6.551-1.578 3.835 1.578 6.552 1.578 4.474-2.366 6.072-4.733c1.917-2.681 2.716-5.363 2.716-5.52-.16-.159-5.433-2.052-5.433-7.888m-5.42-15.028c1.263-1.707 2.21-3.88 2.052-6.21-1.894.156-4.42 1.243-5.683 2.95-1.263 1.397-2.369 3.726-2.053 5.9 2.053.154 4.263-1.087 5.684-2.64m41.108 33.175h-3.579l-1.952-6.09h-6.831l-1.79 6.09h-3.415l6.831-20.677h4.23zm-6.181-8.655-1.79-5.45c-.162-.48-.487-1.923-1.138-3.847a43 43 0 0 1-.976 3.847l-1.79 5.45zm23.748.556c0 2.606-.65 4.56-2.114 6.19-1.302 1.302-2.766 1.954-4.718 1.954s-3.415-.652-4.229-2.117v7.98h-3.416V39.836c0-1.628 0-3.257-.162-5.049h2.928l.162 2.443c1.139-1.791 2.766-2.768 5.043-2.768 1.789 0 3.253.651 4.392 2.117 1.464 1.303 2.114 3.094 2.114 5.537m-3.416 0c0-1.465-.325-2.768-.976-3.583q-.975-1.466-2.928-1.466c-.813 0-1.626.326-2.277.815-.65.488-1.138 1.303-1.301 2.117-.163.489-.163.814-.163.977v2.606c0 1.14.326 1.955.976 2.769s1.627 1.14 2.603 1.14q1.951 0 2.928-1.466c.813-.977 1.138-2.28 1.138-3.909m20.008 0c0 2.606-.651 4.56-2.115 6.19-1.301 1.302-2.765 1.954-4.717 1.954s-3.416-.652-4.23-2.117v7.98h-3.415V39.836c0-1.628 0-3.257-.163-5.049h2.928l.163 2.443c1.138-1.791 2.765-2.768 5.042-2.768 1.79 0 3.253.651 4.392 2.117 1.464 1.303 2.115 3.094 2.115 5.537m-3.416 0c0-1.465-.326-2.768-.976-3.583q-.976-1.466-2.928-1.466c-.813 0-1.627.326-2.277.815s-1.139 1.303-1.302 2.117c-.162.489-.162.814-.162.977v2.606c0 1.14.325 1.955.976 2.769.65.814 1.626 1.14 2.602 1.14q1.951 0 2.928-1.466c.813-.977 1.139-2.28 1.139-3.909m21.959 2.147c0 1.723-.643 3.133-1.767 4.23-1.285 1.252-3.212 1.722-5.62 1.722-2.25 0-4.016-.47-5.3-1.253l.802-2.663c1.446.784 3.052 1.253 4.818 1.253 1.285 0 2.249-.313 2.891-.783.643-.626.964-1.253.964-2.193 0-.783-.321-1.566-.803-2.036-.643-.627-1.606-1.097-2.891-1.567-3.694-1.253-5.46-3.29-5.46-5.795 0-1.723.642-2.977 1.927-4.073s2.89-1.567 5.139-1.567c1.927 0 3.373.314 4.657.94l-.803 2.663c-1.124-.626-2.409-.94-4.015-.94-1.124 0-2.087.314-2.73.784a2.56 2.56 0 0 0-.803 1.88c0 .783.321 1.41.964 2.036.482.47 1.606.94 3.051 1.566a10.9 10.9 0 0 1 4.015 2.506c.482.784.964 1.88.964 3.29m10.735-6.573h-3.544v7.135c0 1.744.617 2.695 1.85 2.695.616 0 1.078 0 1.386-.158l.154 2.536c-.616.317-1.387.317-2.465.317-1.233 0-2.312-.317-2.928-1.11-.77-.792-1.079-2.06-1.079-3.963v-7.451h-2.157v-2.537h2.157V32.46l3.082-.951v3.646h3.544zm16.592 4.567c0 2.274-.644 4.223-1.93 5.685-1.449 1.461-3.218 2.273-5.47 2.273-2.253 0-4.022-.812-5.31-2.273-1.286-1.462-1.93-3.249-1.93-5.522s.644-4.223 2.092-5.685c1.287-1.461 3.217-2.273 5.47-2.273s4.021.812 5.308 2.273c1.126 1.462 1.77 3.249 1.77 5.522m-3.54.163c0-1.462-.321-2.599-.965-3.573a3.44 3.44 0 0 0-3.056-1.787c-1.287 0-2.413.65-3.057 1.787-.643.974-.965 2.273-.965 3.573 0 1.461.322 2.598.965 3.573a3.44 3.44 0 0 0 3.057 1.786c1.287 0 2.252-.65 3.056-1.786.644-.975.966-2.274.966-3.573m14.274-4.694c-.306 0-.612-.155-1.071-.155-1.072 0-1.99.466-2.603 1.244a5.43 5.43 0 0 0-.765 2.798v7.618h-3.215v-9.95c0-1.71 0-3.11-.153-4.509h2.755l.153 2.799h.153c.307-.933.919-1.71 1.531-2.332.766-.467 1.531-.777 2.297-.777h.765v3.264zm14.64 3.882c0 .65 0 1.136-.153 1.461h-9.478q0 2.193 1.376 3.41a4.75 4.75 0 0 0 3.057 1.138c1.376 0 2.752-.163 3.822-.65l.459 2.274c-1.376.65-2.905.974-4.74.974-2.14 0-3.974-.65-5.196-2.111-1.223-1.3-1.835-3.248-1.835-5.522s.612-4.223 1.682-5.684q1.834-2.436 5.044-2.436c1.987 0 3.669.812 4.586 2.436 1.07 1.299 1.376 2.923 1.376 4.71m-2.905-.812c0-.975-.152-1.787-.611-2.599-.612-.974-1.376-1.462-2.446-1.462s-1.834.488-2.446 1.3c-.458.65-.764 1.624-.917 2.598h6.42zM72.221 16.43c0 1.693-.45 3.078-1.501 4-.901.77-2.253 1.232-4.054 1.232-.901 0-1.652 0-2.253-.154v-9.539c.751-.154 1.652-.154 2.703-.154 1.652 0 2.853.308 3.754 1.077.75.77 1.351 2 1.351 3.539m-1.651 0c0-1.076-.3-2-.901-2.615s-1.502-.923-2.553-.923c-.45 0-.9 0-1.201.154v7.23h1.051q1.802 0 2.703-.922c.6-.616.9-1.692.9-2.923m10.436 1.291c0 1.149-.304 2.133-.911 2.79-.607.82-1.518 1.149-2.581 1.149s-1.822-.329-2.429-1.15c-.607-.656-.91-1.64-.91-2.789s.303-2.133.91-2.79c.607-.82 1.518-1.148 2.58-1.148 1.064 0 1.823.328 2.43 1.148.607.657.91 1.641.91 2.79m-1.518 0c0-.656-.152-1.313-.456-1.805-.303-.656-.759-.82-1.366-.82s-1.063.328-1.366.82-.456 1.149-.456 1.805.152 1.313.456 1.805c.303.657.759.82 1.366.82q.911 0 1.366-.984c.304-.328.456-.985.456-1.64m13.23-2.954-2.243 6.892h-1.442l-.961-2.997c-.32-.75-.481-1.498-.641-2.248-.16.75-.32 1.499-.641 2.248l-.962 2.997h-1.442l-2.403-6.893h1.602l.801 3.297.481 2.247c.16-.6.32-1.348.64-2.247l.962-3.297h1.282l.962 3.147c.32.749.48 1.498.64 2.247l.481-2.247.962-3.147zm8.784 6.892h-1.501v-4.267q0-1.97-1.352-1.97c-.45 0-.75.165-1.05.493s-.451.82-.451 1.313v4.43h-1.502v-7.548h1.352v1.149c.15-.329.45-.657.75-.985q.675-.492 1.352-.492c.6 0 1.2.164 1.651.656.6.492.751 1.313.751 2.462zm4.88 0h-1.952V10.83h1.952zm8.783-3.939c0 1.149-.303 2.133-.91 2.79-.608.82-1.519 1.149-2.581 1.149s-1.822-.329-2.43-1.15c-.607-.656-.91-1.64-.91-2.789s.303-2.133.91-2.79c.608-.656 1.519-1.148 2.582-1.148s1.821.328 2.429 1.148c.607.657.91 1.641.91 2.79m-1.518 0c0-.656-.152-1.313-.455-1.805-.304-.656-.76-.82-1.366-.82-.608 0-1.063.328-1.367.82-.303.492-.455 1.149-.455 1.805s.152 1.313.455 1.805c.304.657.76.82 1.367.82q.91 0 1.366-.984c.303-.328.455-.985.455-1.64m9.172 3.773h-1.387l-.154-.82c-.462.656-1.233.985-2.003.985-.617 0-1.233-.165-1.541-.657s-.617-.984-.617-1.477c0-.984.309-1.64 1.08-2.133.77-.492 1.694-.657 3.081-.657v-.164q0-1.476-1.387-1.477c-.77 0-1.233.165-1.849.493l-.308-1.149c.616-.492 1.387-.656 2.465-.656 1.85 0 2.774.984 2.774 3.118v2.79c-.154.82-.154 1.312-.154 1.804m-1.54-2.625v-1.149c-1.696 0-2.62.492-2.62 1.477 0 .328.153.656.308.82.154.165.462.329.77.329s.616-.164.925-.328c.308-.165.462-.493.616-.821zM132.73 21.5h-1.43v-1.132c-.476.97-1.27 1.294-2.382 1.294-.954 0-1.59-.324-2.225-.97-.635-.647-.794-1.617-.794-2.748q0-1.698.953-2.91c.636-.647 1.43-.97 2.225-.97.953 0 1.588.323 2.065.97V10.83h1.589V21.5m-1.588-3.072V16.65c-.159-.323-.318-.646-.636-.97-.317-.323-.635-.323-1.112-.323-.635 0-1.112.323-1.43.808q-.476.728-.476 1.94c0 .808.159 1.293.476 1.778.318.485.795.809 1.43.809.477 0 .954-.162 1.271-.647.318-.647.477-1.132.477-1.617m15.251-.705c0 1.149-.303 2.133-.91 2.79-.608.82-1.519 1.149-2.582 1.149s-1.821-.329-2.429-1.15c-.607-.656-.91-1.64-.91-2.789s.303-2.133.91-2.79c.608-.82 1.519-1.148 2.581-1.148s1.822.328 2.43 1.148c.607.657.91 1.641.91 2.79m-1.67 0c0-.656-.152-1.313-.455-1.805-.304-.656-.76-.82-1.367-.82s-1.062.328-1.366.82-.455 1.149-.455 1.805.151 1.313.455 1.805c.304.657.76.82 1.366.82q.911 0 1.367-.984c.303-.328.455-.985.455-1.64m9.478 3.938H152.7v-4.267q0-1.97-1.35-1.97c-.451 0-.752.165-1.052.493s-.45.82-.45 1.313v4.43h-1.502v-7.548h1.351v1.149c.15-.329.45-.657.751-.985q.675-.492 1.352-.492c.6 0 1.2.164 1.651.656.6.492.75 1.313.75 2.462zm11.538-5.959h-1.918v3.361c0 .917.349 1.222 1.046 1.222h.871v1.223c-.348.153-.871.153-1.394.153-.697 0-1.22-.153-1.569-.612-.348-.305-.522-1.07-.522-1.833v-3.514h-1.22V14.48h1.22v-1.223l1.742-.458v1.68h1.917v1.223zm7.981 5.959h-1.501v-4.203q0-1.94-1.352-1.94c-.75 0-1.2.323-1.501 1.131v5.012h-1.502V10.83h1.502v4.526c.45-.808 1.201-1.293 2.102-1.293.6 0 1.201.161 1.501.646.45.485.751 1.455.751 2.425zm9.759-4.358v.838h-5.123c0 .838.342 1.34.683 1.676a2.92 2.92 0 0 0 1.708.503 6.5 6.5 0 0 0 2.05-.335l.341 1.173q-1.024.503-2.562.503c-1.195 0-2.22-.336-2.903-1.006s-1.025-1.676-1.025-2.85c0-1.172.342-2.178 1.025-2.848.683-.838 1.537-1.173 2.732-1.173s2.05.335 2.562 1.173c.342.503.513 1.34.513 2.346m-1.536-.503c0-.502-.171-1.005-.342-1.34-.342-.503-.683-.67-1.366-.67-.513 0-1.025.167-1.367.67-.341.335-.512.838-.512 1.34z"/></g></svg>