<?xml version="1.0" encoding="UTF-8"?>
<svg xmlns="http://www.w3.org/2000/svg" xmlns:xlink="http://www.w3.org/1999/xlink" width="203px" height="64px" viewBox="0 0 203 64" version="1.1">
  <title>chromecast_appatore_img</title>
  <g id="1.1.0" stroke="none" stroke-width="1" fill="none" fill-rule="evenodd">
    <g id="切图" transform="translate(-48.000000, -50.000000)" fill-rule="nonzero">
      <g id="编组-4" transform="translate(48.000000, 50.000000)">
        <path d="M196.65625,64 L6.34375,64 C2.8546875,64 0,61.12 0,57.6 L0,6.4 C0,2.88 2.8546875,0 6.34375,0 L196.65625,0 C200.145312,0 203,2.88 203,6.4 L203,57.6 C203,61.12 200.145313,64 196.65625,64 Z" id="路径" fill="#000000"></path>
        <path d="M43.3652719,32.0677562 C43.3652719,27.1775773 47.5197699,24.8113617 47.6795582,24.653614 C45.2827325,21.3409122 41.7673881,20.867669 40.489081,20.7099213 C37.4531017,20.3944259 34.4171224,22.4451461 32.979027,22.4451461 C31.3811432,22.4451461 28.9843174,20.7099213 26.4277033,20.7099213 C23.0721472,20.7099213 20.0361679,22.6028938 18.2784957,25.6001002 C14.7631513,31.5945131 17.3197654,40.4283847 20.6753215,45.3185636 C22.4329937,47.6847792 24.3504543,50.3664903 26.9070684,50.2087426 C29.4636826,50.0509949 30.4224129,48.6312655 33.4583921,48.6312655 C36.4943714,48.6312655 37.2933133,50.2087426 40.0097158,50.2087426 C42.7261184,50.2087426 44.4837906,47.842527 46.0816744,45.4763113 C47.999135,42.7946003 48.7980769,40.1128893 48.7980769,39.9551416 C48.6382885,39.7973939 43.3652719,37.9044214 43.3652719,32.0677562 Z" id="路径" fill="#FFFFFF"></path>
        <path d="M37.9448064,17.0401794 C39.207823,15.3325916 40.1550855,13.1592981 39.9972084,10.8307692 C38.1026835,10.9860045 35.5766503,12.0726513 34.3136337,13.7802391 C33.0506171,15.1773564 31.9454775,17.5058852 32.2612317,19.6791788 C34.3136337,19.834414 36.5239127,18.592532 37.9448064,17.0401794 Z" id="路径" fill="#FFFFFF"></path>
        <path d="M79.0528846,50.2153846 L75.474359,50.2153846 L73.5224359,44.1245081 L66.6907051,44.1245081 L64.9014423,50.2153846 L61.4855769,50.2153846 L68.3173077,29.5384615 L72.5464744,29.5384615 L79.0528846,50.2153846 Z M72.8717949,41.5599284 L71.0825321,36.1101968 C70.9198718,35.6293381 70.5945513,34.1867621 69.9439103,32.2633274 L69.9439103,32.2633274 C69.78125,33.0647585 69.4559295,34.5073345 68.9679487,36.1101968 L67.1786859,41.5599284 L72.8717949,41.5599284 Z" id="形状" fill="#FFFFFF"></path>
        <path d="M96.6201923,42.1163678 C96.6201923,44.7222672 95.9695513,46.6766917 94.505609,48.3053788 C93.2043269,49.6083285 91.7403846,50.2598034 89.7884615,50.2598034 C87.8365385,50.2598034 86.3725962,49.6083285 85.5592949,48.1425101 L85.5592949,48.1425101 L85.5592949,56.1230769 L82.1434295,56.1230769 L82.1434295,39.8362059 C82.1434295,38.2075188 82.1434295,36.5788317 81.9807692,34.7872759 L84.9086538,34.7872759 L85.0713141,37.2303065 L85.0713141,37.2303065 C86.2099359,35.4387507 87.8365385,34.4615385 90.1137821,34.4615385 C91.9030449,34.4615385 93.3669872,35.1130133 94.505609,36.5788317 C95.9695513,37.8817814 96.6201923,39.6733372 96.6201923,42.1163678 Z M93.2043269,42.1163678 C93.2043269,40.6505495 92.8790064,39.3475998 92.2283654,38.5332562 C91.5777244,37.556044 90.6017628,37.0674378 89.3004808,37.0674378 C88.4871795,37.0674378 87.6738782,37.3931752 87.0232372,37.8817814 C86.3725962,38.3703875 85.8846154,39.1847311 85.7219551,39.9990746 C85.5592949,40.4876807 85.5592949,40.8134182 85.5592949,40.9762869 L85.5592949,43.5821862 C85.5592949,44.7222672 85.8846154,45.5366108 86.5352564,46.3509543 C87.1858974,47.1652979 88.161859,47.4910353 89.1378205,47.4910353 C90.4391026,47.4910353 91.4150641,47.0024291 92.0657051,46.0252169 C92.8790064,45.0480046 93.2043269,43.7450549 93.2043269,42.1163678 Z" id="形状" fill="#FFFFFF"></path>
        <path d="M113.211538,42.1163678 C113.211538,44.7222672 112.560897,46.6766917 111.096955,48.3053788 C109.795673,49.6083285 108.331731,50.2598034 106.379808,50.2598034 C104.427885,50.2598034 102.963942,49.6083285 102.150641,48.1425101 L102.150641,48.1425101 L102.150641,56.1230769 L98.7347756,56.1230769 L98.7347756,39.8362059 C98.7347756,38.2075188 98.7347756,36.5788317 98.5721154,34.7872759 L101.5,34.7872759 L101.66266,37.2303065 L101.66266,37.2303065 C102.801282,35.4387507 104.427885,34.4615385 106.705128,34.4615385 C108.494391,34.4615385 109.958333,35.1130133 111.096955,36.5788317 C112.560897,37.8817814 113.211538,39.6733372 113.211538,42.1163678 Z M109.795673,42.1163678 C109.795673,40.6505495 109.470353,39.3475998 108.819712,38.5332562 C108.169071,37.556044 107.193109,37.0674378 105.891827,37.0674378 C105.078526,37.0674378 104.265224,37.3931752 103.614583,37.8817814 C102.963942,38.3703875 102.475962,39.1847311 102.313301,39.9990746 C102.150641,40.4876807 102.150641,40.8134182 102.150641,40.9762869 L102.150641,43.5821862 C102.150641,44.7222672 102.475962,45.5366108 103.126603,46.3509543 C103.777244,47.1652979 104.753205,47.4910353 105.729167,47.4910353 C107.030449,47.4910353 108.00641,47.0024291 108.657051,46.0252169 C109.470353,45.0480046 109.795673,43.7450549 109.795673,42.1163678 Z" id="形状" fill="#FFFFFF"></path>
        <path d="M131.754808,44.2629371 C131.754808,45.986014 131.112403,47.3958042 129.988194,48.4923077 C128.703384,49.7454545 126.776168,50.2153846 124.367149,50.2153846 C122.118732,50.2153846 120.352118,49.7454545 119.067308,48.9622378 L119.870314,46.2993007 C121.315725,47.0825175 122.921738,47.5524476 124.688352,47.5524476 C125.973162,47.5524476 126.93677,47.2391608 127.579175,46.7692308 C128.22158,46.1426573 128.542782,45.5160839 128.542782,44.5762238 C128.542782,43.793007 128.22158,43.0097902 127.739776,42.5398601 C127.097371,41.9132867 126.133763,41.4433566 124.848953,40.9734266 C121.155124,39.7202797 119.38851,37.6839161 119.38851,35.1776224 C119.38851,33.4545455 120.030915,32.2013986 121.315725,31.1048951 C122.600536,30.0083916 124.206548,29.5384615 126.454966,29.5384615 C128.382181,29.5384615 129.827593,29.8517483 131.112403,30.4783217 L130.309396,33.1412587 C129.185187,32.5146853 127.900377,32.2013986 126.294365,32.2013986 C125.170156,32.2013986 124.206548,32.5146853 123.564143,32.9846154 C123.082339,33.4545455 122.761137,34.0811189 122.761137,34.8643357 C122.761137,35.6475524 123.082339,36.2741259 123.724744,36.9006993 C124.206548,37.3706294 125.330757,37.8405594 126.776168,38.4671329 C128.542782,39.0937063 129.827593,40.0335664 130.7912,40.9734266 C131.273004,41.7566434 131.754808,42.8531469 131.754808,44.2629371 Z" id="路径" fill="#FFFFFF"></path>
        <path d="M142.490385,37.6907432 L138.946103,37.6907432 L138.946103,44.8250326 C138.946103,46.56897 139.5625,47.5202086 140.795294,47.5202086 C141.41169,47.5202086 141.873988,47.5202086 142.182186,47.3616688 L142.336285,49.8983051 C141.719889,50.2153846 140.949393,50.2153846 139.870698,50.2153846 C138.637905,50.2153846 137.559211,49.8983051 136.942814,49.1056063 C136.172318,48.3129074 135.864119,47.0445893 135.864119,45.1421121 L135.864119,37.6907432 L133.706731,37.6907432 L133.706731,35.1541069 L135.864119,35.1541069 L135.864119,32.4589309 L138.946103,31.5076923 L138.946103,35.1541069 L142.490385,35.1541069 L142.490385,37.6907432 Z" id="路径" fill="#FFFFFF"></path>
        <path d="M159.081731,42.2572561 C159.081731,44.5310071 158.43824,46.4799366 157.151257,47.9416336 C155.703402,49.4033307 153.933802,50.2153846 151.681583,50.2153846 C149.429364,50.2153846 147.659763,49.4033307 146.372781,47.9416336 C145.085799,46.4799366 144.442308,44.6934179 144.442308,42.4196669 C144.442308,40.1459159 145.085799,38.1969865 146.533654,36.7352895 C147.820636,35.2735924 149.751109,34.4615385 152.003328,34.4615385 C154.255547,34.4615385 156.025148,35.2735924 157.31213,36.7352895 C158.43824,38.1969865 159.081731,39.9835052 159.081731,42.2572561 Z M155.54253,42.4196669 C155.54253,40.9579699 155.220784,39.8210944 154.577293,38.8466297 C153.933802,37.7097542 152.807692,37.060111 151.52071,37.060111 C150.233728,37.060111 149.107618,37.7097542 148.464127,38.8466297 C147.820636,39.8210944 147.498891,41.1203807 147.498891,42.4196669 C147.498891,43.881364 147.820636,45.0182395 148.464127,45.9927042 C149.107618,47.1295797 150.233728,47.7792228 151.52071,47.7792228 C152.807692,47.7792228 153.772929,47.1295797 154.577293,45.9927042 C155.220784,45.0182395 155.54253,43.7189532 155.54253,42.4196669 Z" id="形状" fill="#FFFFFF"></path>
        <path d="M169.817308,37.7263158 C169.511124,37.7263158 169.20494,37.5708502 168.745664,37.5708502 C167.67402,37.5708502 166.755468,38.037247 166.1431,38.8145749 C165.683824,39.5919028 165.37764,40.5246964 165.37764,41.6129555 L165.37764,49.2307692 L162.162707,49.2307692 L162.162707,39.2809717 C162.162707,37.5708502 162.162707,36.1716599 162.009615,34.7724696 L164.765271,34.7724696 L164.918363,37.5708502 L165.071456,37.5708502 C165.37764,36.6380567 165.990008,35.8607287 166.602376,35.2388664 C167.367836,34.7724696 168.133296,34.4615385 168.898756,34.4615385 C169.20494,34.4615385 169.511124,34.4615385 169.664216,34.4615385 L169.664216,37.7263158 L169.817308,37.7263158 Z" id="路径" fill="#FFFFFF"></path>
        <path d="M184.456731,41.607613 C184.456731,42.2572561 184.456731,42.7444885 184.303869,43.0693101 L174.82646,43.0693101 C174.82646,44.5310071 175.285044,45.6678826 176.202213,46.4799366 C176.96652,47.1295797 178.03655,47.6168121 179.259442,47.6168121 C180.635195,47.6168121 182.010948,47.4544013 183.080978,46.9671689 L183.539562,49.2409199 C182.163809,49.890563 180.635195,50.2153846 178.800857,50.2153846 C176.660797,50.2153846 174.82646,49.5657415 173.603568,48.1040444 C172.380677,46.8047581 171.769231,44.8558287 171.769231,42.5820777 C171.769231,40.3083267 172.380677,38.3593973 173.450707,36.8977002 C174.673598,35.2735924 176.355074,34.4615385 178.495134,34.4615385 C180.482333,34.4615385 182.163809,35.2735924 183.080978,36.8977002 C184.151008,38.1969865 184.456731,39.8210944 184.456731,41.607613 Z M181.552363,40.7955591 C181.552363,39.8210944 181.399502,39.0090404 180.940918,38.1969865 C180.329472,37.2225218 179.565165,36.7352895 178.495134,36.7352895 C177.425104,36.7352895 176.660797,37.2225218 176.049351,38.0345757 C175.590767,38.6842189 175.285044,39.6586836 175.132183,40.6331483 L181.552363,40.6331483 L181.552363,40.7955591 Z" id="形状" fill="#FFFFFF"></path>
        <path d="M72.2211538,16.4307692 C72.2211538,18.1230769 71.7707101,19.5076923 70.7196746,20.4307692 C69.818787,21.2 68.4674556,21.6615385 66.6656805,21.6615385 C65.7647929,21.6615385 65.0140533,21.6615385 64.4134615,21.5076923 L64.4134615,11.9692308 C65.1642012,11.8153846 66.0650888,11.8153846 67.1161243,11.8153846 C68.7677515,11.8153846 69.9689349,12.1230769 70.8698225,12.8923077 C71.6205621,13.6615385 72.2211538,14.8923077 72.2211538,16.4307692 Z M70.5695266,16.4307692 C70.5695266,15.3538462 70.2692308,14.4307692 69.6686391,13.8153846 C69.0680473,13.2 68.1671598,12.8923077 67.1161243,12.8923077 C66.6656805,12.8923077 66.2152367,12.8923077 65.9149408,13.0461538 L65.9149408,20.2769231 C66.0650888,20.2769231 66.5155325,20.2769231 66.9659763,20.2769231 C68.1671598,20.2769231 69.0680473,19.9692308 69.6686391,19.3538462 C70.2692308,18.7384615 70.5695266,17.6615385 70.5695266,16.4307692 Z" id="形状" fill="#FFFFFF"></path>
        <path d="M81.0048077,17.7230769 C81.0048077,18.8717949 80.7011752,19.8564103 80.0939103,20.5128205 C79.4866453,21.3333333 78.5757479,21.6615385 77.5130342,21.6615385 C76.4503205,21.6615385 75.6912393,21.3333333 75.0839744,20.5128205 C74.4767094,19.8564103 74.1730769,18.8717949 74.1730769,17.7230769 C74.1730769,16.574359 74.4767094,15.5897436 75.0839744,14.9333333 C75.6912393,14.1128205 76.6021368,13.7846154 77.6648504,13.7846154 C78.7275641,13.7846154 79.4866453,14.1128205 80.0939103,14.9333333 C80.7011752,15.5897436 81.0048077,16.574359 81.0048077,17.7230769 Z M79.4866453,17.7230769 C79.4866453,17.0666667 79.3348291,16.4102564 79.0311966,15.9179487 C78.7275641,15.2615385 78.2721154,15.0974359 77.6648504,15.0974359 C77.0575855,15.0974359 76.6021368,15.425641 76.2985043,15.9179487 C75.9948718,16.4102564 75.8430556,17.0666667 75.8430556,17.7230769 C75.8430556,18.3794872 75.9948718,19.0358974 76.2985043,19.5282051 C76.6021368,20.1846154 77.0575855,20.3487179 77.6648504,20.3487179 C78.2721154,20.3487179 78.7275641,20.0205128 79.0311966,19.3641026 C79.3348291,19.0358974 79.4866453,18.3794872 79.4866453,17.7230769 Z" id="形状" fill="#FFFFFF"></path>
        <path d="M92.7163462,14.7692308 L90.4730913,21.6615385 L89.0309989,21.6615385 L88.0696039,18.6648829 C87.7491389,17.9157191 87.5889064,17.1665552 87.4286739,16.4173913 L87.4286739,16.4173913 C87.2684414,17.1665552 87.108209,17.9157191 86.787744,18.6648829 L85.826349,21.6615385 L84.3842566,21.6615385 L81.9807692,14.7692308 L83.5830941,14.7692308 L84.3842566,18.0655518 C84.5444891,18.8147157 84.7047216,19.5638796 84.8649541,20.3130435 L84.8649541,20.3130435 C85.0251866,19.7137124 85.1854191,18.9645485 85.505884,18.0655518 L86.467279,14.7692308 L87.7491389,14.7692308 L88.7105339,17.9157191 C89.0309989,18.6648829 89.1912313,19.4140468 89.3514638,20.1632107 L89.3514638,20.1632107 C89.5116963,19.4140468 89.6719288,18.6648829 89.8321613,17.9157191 L90.7935563,14.7692308 L92.7163462,14.7692308 Z" id="路径" fill="#FFFFFF"></path>
        <path d="M101.5,21.6615385 L99.9985207,21.6615385 L99.9985207,17.3948718 C99.9985207,16.0820513 99.5480769,15.425641 98.6471893,15.425641 C98.1967456,15.425641 97.8964497,15.5897436 97.5961538,15.9179487 C97.295858,16.2461538 97.1457101,16.7384615 97.1457101,17.2307692 L97.1457101,21.6615385 L95.6442308,21.6615385 L95.6442308,16.2461538 C95.6442308,15.5897436 95.6442308,14.9333333 95.6442308,14.1128205 L96.9955621,14.1128205 L96.9955621,15.2615385 L96.9955621,15.2615385 C97.1457101,14.9333333 97.4460059,14.6051282 97.7463018,14.2769231 C98.1967456,13.9487179 98.6471893,13.7846154 99.0976331,13.7846154 C99.6982249,13.7846154 100.298817,13.9487179 100.74926,14.4410256 C101.349852,14.9333333 101.5,15.7538462 101.5,16.9025641 L101.5,21.6615385 Z" id="路径" fill="#FFFFFF"></path>
        <polygon id="路径" fill="#FFFFFF" points="106.379808 21.6615385 104.427885 21.6615385 104.427885 10.8307692 106.379808 10.8307692"></polygon>
        <path d="M115.163462,17.7230769 C115.163462,18.8717949 114.859829,19.8564103 114.252564,20.5128205 C113.645299,21.3333333 112.734402,21.6615385 111.671688,21.6615385 C110.608974,21.6615385 109.849893,21.3333333 109.242628,20.5128205 C108.635363,19.8564103 108.331731,18.8717949 108.331731,17.7230769 C108.331731,16.574359 108.635363,15.5897436 109.242628,14.9333333 C109.849893,14.2769231 110.760791,13.7846154 111.823504,13.7846154 C112.886218,13.7846154 113.645299,14.1128205 114.252564,14.9333333 C114.859829,15.5897436 115.163462,16.574359 115.163462,17.7230769 Z M113.645299,17.7230769 C113.645299,17.0666667 113.493483,16.4102564 113.18985,15.9179487 C112.886218,15.2615385 112.430769,15.0974359 111.823504,15.0974359 C111.216239,15.0974359 110.760791,15.425641 110.457158,15.9179487 C110.153526,16.4102564 110.001709,17.0666667 110.001709,17.7230769 C110.001709,18.3794872 110.153526,19.0358974 110.457158,19.5282051 C110.760791,20.1846154 111.216239,20.3487179 111.823504,20.3487179 C112.430769,20.3487179 112.886218,20.0205128 113.18985,19.3641026 C113.493483,19.0358974 113.645299,18.3794872 113.645299,17.7230769 Z" id="形状" fill="#FFFFFF"></path>
        <path d="M122.817055,21.4974359 L121.430162,21.4974359 L121.276063,20.6769231 L121.276063,20.6769231 C120.813765,21.3333333 120.043269,21.6615385 119.272773,21.6615385 C118.656377,21.6615385 118.03998,21.4974359 117.731781,21.0051282 C117.423583,20.5128205 117.115385,20.0205128 117.115385,19.5282051 C117.115385,18.5435897 117.423583,17.8871795 118.194079,17.3948718 C118.964575,16.9025641 119.88917,16.7384615 121.276063,16.7384615 L121.276063,16.574359 C121.276063,15.5897436 120.813765,15.0974359 119.88917,15.0974359 C119.118674,15.0974359 118.656377,15.2615385 118.03998,15.5897436 L117.731781,14.4410256 C118.348178,13.9487179 119.118674,13.7846154 120.197368,13.7846154 C122.046559,13.7846154 122.971154,14.7692308 122.971154,16.9025641 L122.971154,19.6923077 C122.817055,20.5128205 122.817055,21.0051282 122.817055,21.4974359 Z M121.276063,18.8717949 L121.276063,17.7230769 C119.580972,17.7230769 118.656377,18.2153846 118.656377,19.2 C118.656377,19.5282051 118.810476,19.8564103 118.964575,20.0205128 C119.118674,20.1846154 119.426872,20.3487179 119.735071,20.3487179 C120.043269,20.3487179 120.351468,20.1846154 120.659666,20.0205128 C120.967864,19.8564103 121.121964,19.5282051 121.276063,19.2 C121.276063,19.2 121.276063,19.0358974 121.276063,18.8717949 Z" id="形状" fill="#FFFFFF"></path>
        <path d="M132.730769,21.4998852 L131.300872,21.4998852 L131.300872,20.3683123 L131.300872,20.3683123 C130.82424,21.3382319 130.029852,21.6615385 128.91771,21.6615385 C127.964445,21.6615385 127.328936,21.3382319 126.693426,20.6916188 C126.057916,20.0450057 125.899038,19.0750861 125.899038,17.9435132 C125.899038,16.8119403 126.216793,15.8420207 126.852303,15.0337543 C127.487813,14.3871412 128.2822,14.0638347 129.076588,14.0638347 C130.029852,14.0638347 130.665362,14.3871412 131.141995,15.0337543 L131.141995,15.0337543 L131.141995,10.8307692 L132.730769,10.8307692 L132.730769,19.5600459 C132.730769,20.206659 132.730769,20.8532721 132.730769,21.4998852 Z M131.141995,18.428473 L131.141995,17.1352468 C131.141995,16.9735936 131.141995,16.8119403 131.141995,16.650287 C130.983117,16.3269805 130.82424,16.0036739 130.506485,15.6803674 C130.18873,15.3570608 129.870975,15.3570608 129.394343,15.3570608 C128.758833,15.3570608 128.2822,15.6803674 127.964445,16.1653272 C127.646691,16.650287 127.487813,17.2969001 127.487813,18.1051665 C127.487813,18.9134328 127.646691,19.3983927 127.964445,19.8833525 C128.2822,20.3683123 128.758833,20.6916188 129.394343,20.6916188 C129.870975,20.6916188 130.347607,20.5299656 130.665362,20.0450057 C130.983117,19.3983927 131.141995,18.9134328 131.141995,18.428473 Z" id="形状" fill="#FFFFFF"></path>
        <path d="M146.394231,17.7230769 C146.394231,18.8717949 146.090598,19.8564103 145.483333,20.5128205 C144.876068,21.3333333 143.965171,21.6615385 142.902457,21.6615385 C141.839744,21.6615385 141.080662,21.3333333 140.473397,20.5128205 C139.866132,19.8564103 139.5625,18.8717949 139.5625,17.7230769 C139.5625,16.574359 139.866132,15.5897436 140.473397,14.9333333 C141.080662,14.1128205 141.99156,13.7846154 143.054274,13.7846154 C144.116987,13.7846154 144.876068,14.1128205 145.483333,14.9333333 C146.090598,15.5897436 146.394231,16.574359 146.394231,17.7230769 Z M144.724252,17.7230769 C144.724252,17.0666667 144.572436,16.4102564 144.268803,15.9179487 C143.965171,15.2615385 143.509722,15.0974359 142.902457,15.0974359 C142.295192,15.0974359 141.839744,15.425641 141.536111,15.9179487 C141.232479,16.4102564 141.080662,17.0666667 141.080662,17.7230769 C141.080662,18.3794872 141.232479,19.0358974 141.536111,19.5282051 C141.839744,20.1846154 142.295192,20.3487179 142.902457,20.3487179 C143.509722,20.3487179 143.965171,20.0205128 144.268803,19.3641026 C144.572436,19.0358974 144.724252,18.3794872 144.724252,17.7230769 Z" id="形状" fill="#FFFFFF"></path>
        <path d="M154.201923,21.6615385 L152.700444,21.6615385 L152.700444,17.3948718 C152.700444,16.0820513 152.25,15.425641 151.349112,15.425641 C150.898669,15.425641 150.598373,15.5897436 150.298077,15.9179487 C149.997781,16.2461538 149.847633,16.7384615 149.847633,17.2307692 L149.847633,21.6615385 L148.346154,21.6615385 L148.346154,16.2461538 C148.346154,15.5897436 148.346154,14.9333333 148.346154,14.1128205 L149.697485,14.1128205 L149.697485,15.2615385 L149.697485,15.2615385 C149.847633,14.9333333 150.147929,14.6051282 150.448225,14.2769231 C150.898669,13.9487179 151.349112,13.7846154 151.799556,13.7846154 C152.400148,13.7846154 153.00074,13.9487179 153.451183,14.4410256 C154.051775,14.9333333 154.201923,15.7538462 154.201923,16.9025641 L154.201923,21.6615385 Z" id="路径" fill="#FFFFFF"></path>
        <path d="M165.739183,15.7029178 L163.822115,15.7029178 L163.822115,19.064191 C163.822115,19.9809019 164.170673,20.2864721 164.867788,20.2864721 C165.216346,20.2864721 165.390625,20.2864721 165.739183,20.2864721 L165.739183,21.5087533 C165.390625,21.6615385 164.867788,21.6615385 164.344952,21.6615385 C163.647837,21.6615385 163.125,21.5087533 162.776442,21.0503979 C162.427885,20.7448276 162.253606,19.9809019 162.253606,19.2169761 L162.253606,15.7029178 L161.033654,15.7029178 L161.033654,14.4806366 L162.253606,14.4806366 L162.253606,13.2583554 L163.996394,12.8 L163.996394,14.4806366 L165.913462,14.4806366 L165.913462,15.7029178 L165.739183,15.7029178 Z" id="路径" fill="#FFFFFF"></path>
        <path d="M173.721154,21.6615385 L172.219675,21.6615385 L172.219675,17.4585534 C172.219675,16.1653272 171.769231,15.5187141 170.868343,15.5187141 C170.117604,15.5187141 169.66716,15.8420207 169.366864,16.650287 C169.366864,16.8119403 169.366864,16.9735936 169.366864,17.2969001 L169.366864,21.6615385 L167.865385,21.6615385 L167.865385,10.8307692 L169.366864,10.8307692 L169.366864,15.3570608 L169.366864,15.3570608 C169.817308,14.5487945 170.568047,14.0638347 171.468935,14.0638347 C172.069527,14.0638347 172.670118,14.2254879 172.970414,14.7104478 C173.420858,15.1954076 173.721154,16.1653272 173.721154,17.1352468 L173.721154,21.6615385 Z" id="路径" fill="#FFFFFF"></path>
        <path d="M183.480769,17.3040917 C183.480769,17.6392799 183.480769,17.806874 183.480769,18.1420622 L178.356971,18.1420622 C178.356971,18.9800327 178.698558,19.4828151 179.040144,19.8180033 C179.552524,20.1531915 180.064904,20.3207856 180.748077,20.3207856 C181.602043,20.3207856 182.285216,20.1531915 182.797596,19.9855974 L183.139183,21.1587561 C182.45601,21.4939444 181.602043,21.6615385 180.577284,21.6615385 C179.381731,21.6615385 178.356971,21.3263502 177.673798,20.6559738 C176.990625,19.9855974 176.649038,18.9800327 176.649038,17.806874 C176.649038,16.6337152 176.990625,15.6281506 177.673798,14.9577741 C178.356971,14.1198036 179.210937,13.7846154 180.40649,13.7846154 C181.602043,13.7846154 182.45601,14.1198036 182.968389,14.9577741 C183.309976,15.4605565 183.480769,16.298527 183.480769,17.3040917 Z M181.94363,16.8013093 C181.94363,16.298527 181.772837,15.7957447 181.602043,15.4605565 C181.260457,14.9577741 180.91887,14.79018 180.235697,14.79018 C179.723317,14.79018 179.210937,14.9577741 178.869351,15.4605565 C178.527764,15.7957447 178.356971,16.298527 178.356971,16.8013093 L181.94363,16.8013093 Z" id="形状" fill="#FFFFFF"></path>
      </g>
    </g>
  </g>
</svg>
