<svg xmlns="http://www.w3.org/2000/svg" width="800" height="800" fill="none" viewBox="0 0 24 24"><path fill="#ffab0e" d="M8.098.649A12.04 12.04 0 0 0 1.088 7h3.525C5.305 4.302 6.541 2.065 8.098.65M6.544 7C7.359 3.45 9.014.832 11 .166V7zm-2.33 2H.378A12 12 0 0 0 0 12c0 1.403.24 2.749.683 4h3.703A20.6 20.6 0 0 1 4 12c0-1.032.074-2.037.214-3m2.127 7A23 23 0 0 1 6 12c0-1.036.066-2.041.189-3H11v7zm-1.44 2H1.605a12.04 12.04 0 0 0 6.493 5.351c-1.36-1.237-2.475-3.1-3.197-5.35M11 23.834C9.205 23.232 7.681 21.037 6.803 18H11zm4.902-.483a12.04 12.04 0 0 0 6.493-5.35h-3.296c-.722 2.25-1.837 4.113-3.197 5.35M17.197 18c-.878 3.037-2.402 5.232-4.197 5.834V18zm2.417-2h3.703A12 12 0 0 0 24 12c0-1.036-.131-2.041-.378-3h-3.836c.14.963.214 1.968.214 3 0 1.396-.135 2.74-.386 4m-1.803-7c.123.959.189 1.964.189 3 0 1.403-.12 2.749-.341 4H13V9zm-.355-2H13V.166C14.986.832 16.641 3.45 17.456 7m1.931 0c-.692-2.698-1.928-4.935-3.485-6.351A12.04 12.04 0 0 1 22.912 7z"/></svg>