<svg xmlns="http://www.w3.org/2000/svg" width="19" height="19" viewBox="0 0 19 19"><title>chromecast_icon_2</title><g fill="#1e6cf4"><path d="M15.529 11.621A7.57 7.57 0 0 0 16.78 7.45c0-1.99-.76-3.862-2.14-5.268A7.2 7.2 0 0 0 9.475 0a7.2 7.2 0 0 0-5.167 2.182 7.48 7.48 0 0 0-2.14 5.268c0 1.504.447 2.97 1.273 4.202L0 15.162l3.206.558L3.81 19l4.175-4.256a7.2 7.2 0 0 0 3.021-.01L15.19 19l.606-3.283L19 15.16zm-10.7 4.012L4.58 14.29l-1.233-.214 1.148-1.171a7.3 7.3 0 0 0 1.785 1.249zm3.121-2.59a5.65 5.65 0 0 1-2.823-1.848A5.87 5.87 0 0 1 3.782 7.45c0-3.2 2.554-5.804 5.693-5.804s5.692 2.603 5.692 5.804c0 1.359-.47 2.68-1.324 3.72a5.66 5.66 0 0 1-2.782 1.855l-.027.007a5.6 5.6 0 0 1-3.084.012m6.47 1.247-.25 1.343-1.469-1.498a7.2 7.2 0 0 0 1.776-1.258l1.174 1.197z"/><path d="M11.441 10.74a.61.61 0 0 0 .232-.592l-.254-1.538 1.072-1.09c.16-.16.216-.4.146-.62a.59.59 0 0 0-.47-.412l-1.483-.224-.661-1.403a.58.58 0 0 0-.522-.337.58.58 0 0 0-.521.337l-.664 1.4-1.483.225a.59.59 0 0 0-.47.412.61.61 0 0 0 .148.62l1.072 1.09-.254 1.538a.61.61 0 0 0 .232.592.57.57 0 0 0 .614.047l1.326-.726 1.326.726c.198.11.432.094.614-.045M10.43 7.977a.62.62 0 0 0-.167.537l.117.704-.607-.332a.56.56 0 0 0-.542 0l-.607.332.117-.704a.62.62 0 0 0-.166-.537l-.49-.498.679-.103a.58.58 0 0 0 .438-.333l.304-.641.303.639a.59.59 0 0 0 .438.332l.68.103z"/></g></svg>