<svg xmlns="http://www.w3.org/2000/svg" width="170" height="34" viewBox="0 0 170 34"><title>编组 9</title><path fill="#1e6cf4" fill-rule="evenodd" d="m153 25.5-9.992 5.253 1.908-11.126-8.084-7.88 11.172-1.624L153 0l4.996 10.123 11.172 1.624-8.084 7.88 1.908 11.126zm-34 0-9.992 5.253 1.908-11.126-8.084-7.88 11.172-1.624L119 0l4.996 10.123 11.172 1.624-8.084 7.88 1.908 11.126zm-34 0-9.992 5.253 1.908-11.126-8.084-7.88 11.172-1.624L85 0l4.996 10.123 11.172 1.624-8.084 7.88 1.908 11.126zm-34 0-9.992 5.253 1.908-11.126-8.084-7.88 11.172-1.624L51 0l4.996 10.123 11.172 1.624-8.084 7.88 1.908 11.126zm-34 0-9.992 5.253 1.908-11.126-8.084-7.88 11.172-1.624L17 0l4.996 10.123 11.172 1.624-8.084 7.88 1.908 11.126z"/></svg>