<?xml version="1.0" encoding="UTF-8"?>
<svg xmlns="http://www.w3.org/2000/svg" xmlns:xlink="http://www.w3.org/1999/xlink" width="170px" height="34px" viewBox="0 0 170 34" version="1.1">
  <title>编组 9</title>
  <g id="1.1.0" stroke="none" stroke-width="1" fill="none" fill-rule="evenodd">
    <g id="主页" transform="translate(-875.000000, -7388.000000)" fill="#1E6CF4">
      <g id="编组-9" transform="translate(875.000000, 7388.000000)">
        <g id="home_icon_2" transform="translate(136.000000, 0.000000)">
          <polygon id="星形备份-8" points="17 25.5 7.00765071 30.7532889 8.91601961 19.6266445 0.832039223 11.7467111 12.0038254 10.1233555 17 0 21.9961746 10.1233555 33.1679608 11.7467111 25.0839804 19.6266445 26.9923493 30.7532889"></polygon>
        </g>
        <g id="home_icon_2备份" transform="translate(102.000000, 0.000000)">
          <polygon id="星形备份-8" points="17 25.5 7.00765071 30.7532889 8.91601961 19.6266445 0.832039223 11.7467111 12.0038254 10.1233555 17 0 21.9961746 10.1233555 33.1679608 11.7467111 25.0839804 19.6266445 26.9923493 30.7532889"></polygon>
        </g>
        <g id="home_icon_2备份-2" transform="translate(68.000000, 0.000000)">
          <polygon id="星形备份-8" points="17 25.5 7.00765071 30.7532889 8.91601961 19.6266445 0.832039223 11.7467111 12.0038254 10.1233555 17 0 21.9961746 10.1233555 33.1679608 11.7467111 25.0839804 19.6266445 26.9923493 30.7532889"></polygon>
        </g>
        <g id="home_icon_2备份-3" transform="translate(34.000000, 0.000000)">
          <polygon id="星形备份-8" points="17 25.5 7.00765071 30.7532889 8.91601961 19.6266445 0.832039223 11.7467111 12.0038254 10.1233555 17 0 21.9961746 10.1233555 33.1679608 11.7467111 25.0839804 19.6266445 26.9923493 30.7532889"></polygon>
        </g>
        <g id="home_icon_2备份-4">
          <polygon id="星形备份-8" points="17 25.5 7.00765071 30.7532889 8.91601961 19.6266445 0.832039223 11.7467111 12.0038254 10.1233555 17 0 21.9961746 10.1233555 33.1679608 11.7467111 25.0839804 19.6266445 26.9923493 30.7532889"></polygon>
        </g>
      </g>
    </g>
  </g>
</svg>
