<?xml version="1.0" encoding="UTF-8"?>
<svg xmlns="http://www.w3.org/2000/svg" xmlns:xlink="http://www.w3.org/1999/xlink" width="278px" height="200px" viewBox="0 0 278 200" version="1.1">
  <title>home_provide_img_2</title>
  <defs>
    <rect id="path-1" x="0" y="0" width="278" height="200"></rect>
  </defs>
  <g id="1.1.0" stroke="none" stroke-width="1" fill="none" fill-rule="evenodd">
    <g id="切图" transform="translate(-395.000000, -195.000000)">
      <g id="home_provide_img_2" transform="translate(395.000000, 195.000000)">
        <mask id="mask-2" fill="white">
          <use xlink:href="#path-1"></use>
        </mask>
        <g id="矩形备份-22"></g>
        <g id="编组-6" mask="url(#mask-2)">
          <g transform="translate(45.000000, 62.000000)">
            <circle id="椭圆形" stroke="none" fill="#AFF122" fill-rule="evenodd" cx="96.5" cy="40.263223" r="13.5"></circle>
            <path d="M143.104862,60.4499118 C143.104862,38.9661325 125.688817,21.5500882 104.205038,21.5500882" id="椭圆形备份-28" stroke="#2C78E3" stroke-width="12" fill="none" stroke-linecap="round" stroke-linejoin="round" transform="translate(123.654950, 41.000000) rotate(-315.000000) translate(-123.654950, -41.000000) "></path>
            <path d="M87.3239825,60.4499118 C87.3239825,38.9661325 69.9079382,21.5500882 48.4241588,21.5500882" id="椭圆形备份-30" stroke="#2C78E3" stroke-width="12" fill="none" stroke-linecap="round" stroke-linejoin="round" transform="translate(67.874071, 41.000000) rotate(-135.000000) translate(-67.874071, -41.000000) "></path>
            <path d="M179.520399,69.991378 C179.520399,37.9683861 153.560634,12.008622 121.537643,12.008622" id="椭圆形备份-29" stroke="#2C78E3" stroke-width="12" fill="none" stroke-linecap="round" stroke-linejoin="round" transform="translate(150.529021, 41.000000) rotate(-315.000000) translate(-150.529021, -41.000000) "></path>
            <path d="M69.991378,69.991378 C69.991378,37.9683861 44.0316139,12.008622 12.008622,12.008622" id="椭圆形备份-31" stroke="#2C78E3" stroke-width="12" fill="none" stroke-linecap="round" stroke-linejoin="round" transform="translate(41.000000, 41.000000) rotate(-135.000000) translate(-41.000000, -41.000000) "></path>
          </g>
        </g>
      </g>
    </g>
  </g>
</svg>
