<?xml version="1.0" encoding="UTF-8"?>
<svg xmlns="http://www.w3.org/2000/svg" xmlns:xlink="http://www.w3.org/1999/xlink" width="278px" height="200px" viewBox="0 0 278 200" version="1.1">
  <title>home_provide_img_5</title>
  <defs>
    <path d="M26,0 L252,0 C266.359403,-2.63777963e-15 278,11.6405965 278,26 L278,174 C278,188.359403 266.359403,200 252,200 L0,200 L0,200 L0,26 C-1.75851975e-15,11.6405965 11.6405965,2.63777963e-15 26,0 Z" id="path-1"></path>
  </defs>
  <g id="1.1.0" stroke="none" stroke-width="1" fill="none" fill-rule="evenodd">
    <g id="切图" transform="translate(-1436.000000, -195.000000)">
      <g id="home_provide_img_5" transform="translate(1436.000000, 195.000000)">
        <mask id="mask-2" fill="white">
          <use xlink:href="#path-1"></use>
        </mask>
        <g id="矩形备份-22"></g>
        <g id="编组-42" mask="url(#mask-2)">
          <g transform="translate(61.000000, 52.000000)">
            <line x1="23.4561404" y1="89.5" x2="75" y2="89" id="直线-11" stroke="#2C78E3" stroke-width="5" fill="none" stroke-linecap="round"></line>
            <rect id="矩形" stroke="#2C78E3" stroke-width="4" fill="#AFF122" fill-rule="evenodd" x="0" y="0" width="110" height="73" rx="9"></rect>
            <rect id="矩形备份-44" stroke="#2C78E3" stroke-width="4" fill="#2C78E3" fill-rule="evenodd" x="92" y="16" width="64" height="73" rx="3"></rect>
            <rect id="矩形备份-45" stroke="#2C78E3" stroke-width="4" fill="#F3F9FF" fill-rule="evenodd" x="74" y="54" width="33" height="51" rx="3"></rect>
            <circle id="椭圆形备份-19" stroke="none" fill="#AFF122" fill-rule="evenodd" cx="124" cy="77" r="3"></circle>
            <circle id="椭圆形备份-32" stroke="none" fill="#2C78E3" fill-rule="evenodd" cx="90" cy="93" r="3"></circle>
            <text id="TV" stroke="none" fill="none" font-family="Poppins-Bold, Poppins" font-size="45" font-weight="bold" letter-spacing="-1.41">
              <tspan x="21" y="52" fill="#2C78E3">TV</tspan>
            </text>
          </g>
        </g>
      </g>
    </g>
  </g>
</svg>
