<svg xmlns="http://www.w3.org/2000/svg" xmlns:xlink="http://www.w3.org/1999/xlink" width="278" height="200" viewBox="0 0 278 200"><title>home_provide_img_4</title><defs><path id="a" d="M26 0h226c14.36 0 26 11.64 26 26v148c0 14.36-11.64 26-26 26H0V26C0 11.64 11.64 0 26 0"/></defs><g fill="none" fill-rule="evenodd"><mask id="b" fill="#fff"><use xlink:href="#a"/></mask><g mask="url(#b)"><g transform="translate(85 33)"><path fill="#aff122" stroke="#2c78e3" stroke-width="4" d="M37.06 44.478a5.98 5.98 0 0 1 4.507.573l30.57 17.293a5.98 5.98 0 0 1 2.828 3.619 5.98 5.98 0 0 1-.551 4.543L43.742 122.56a5.98 5.98 0 0 1-3.617 2.75 5.98 5.98 0 0 1-4.507-.574l-30.57-17.293a5.98 5.98 0 0 1-2.828-3.618 5.98 5.98 0 0 1 .551-4.544l30.672-52.053a5.98 5.98 0 0 1 3.617-2.75Z"/><ellipse cx="43.794" cy="75.486" fill="#2c78e3" rx="13.765" ry="13.625" transform="rotate(210 43.794 75.486)"/><path stroke="#2c78e3" stroke-linecap="round" stroke-linejoin="round" stroke-width="8" d="M78.513 47.14c-3.028-11.3-14.644-18.006-25.944-14.979m47.189 11.793C93.253 19.68 68.3 5.273 44.026 11.777"/><rect width="25" height="10" x="17.825" y="94.58" fill="#2c78e3" rx="5" transform="rotate(30 30.325 99.58)"/></g></g></g></svg>